<?xml version="1.0" encoding="utf-8"?>
<!-- Generator: Adobe Illustrator 27.2.0, SVG Export Plug-In . SVG Version: 6.00 Build 0)  -->
<svg version="1.1" id="Capa_1" xmlns="http://www.w3.org/2000/svg" xmlns:xlink="http://www.w3.org/1999/xlink" x="0px" y="0px"
	 viewBox="0 0 220 280" style="enable-background:new 0 0 220 280;" xml:space="preserve">
<style type="text/css">
	.st0{fill:#FFFFFF;stroke:#1D1D1B;stroke-miterlimit:10;}
	.st1{fill:none;}
	.st2{font-family:'Impact';}
	.st3{font-size:48px;}
</style>
<g>
	<path class="st0" d="M200.3,110.93c1.35,48.07-40.88,91.58-91.98,91.77C57.93,202.89,15,161.6,15,110.83
		C15,60.55,57.32,19.06,107.72,19C159.02,18.94,201.64,62.01,200.3,110.93z M107.81,195.26c45.43,1.16,85.3-37.52,85.52-83.92
		c0.22-47.98-40.51-85.16-85.48-85.16c-46.75,0-85.5,39.09-85.59,84.44C22.16,156.91,61.69,196.37,107.81,195.26z"/>
	<path class="st0" d="M32.28,111.2C31.2,74.12,59.76,44.72,89.63,38.06c38.46-8.57,73.24,10.21,88.24,44.38
		c4.69,10.68,6.1,22.01,5.3,33.64c-0.7,10.19-3.14,19.88-7.92,28.95c-1.16,2.2-1.55,2.21-2.94,0.09c-1.91-2.9-2.55-6.16-1.1-9.24
		c2.22-4.73-0.64-10.45-4.68-12.76c-0.4-0.23-0.79-0.49-1.19-0.73c-2.83-1.66-2.94-2.42-0.97-5.11c0.52-0.71,1.05-0.55,1.73-0.49
		c2.08,0.2,3.08-0.79,4.11-3.73c0.64-1.82,0.09-3.08-1.55-3.96c-1.41-0.75-2.82-1.49-4.25-2.18c-0.46-0.22-1.07-0.49-1.51-0.37
		c-2.04,0.56-2.36,2.52-3.13,4.07c-0.55,1.1-0.71,2.2,0.44,3.21c1.81,1.58-0.27,2.68-0.74,3.9c-0.54,1.39-1.55,0.44-2.29,0.02
		c-2.72-1.52-5.39-3.15-8.14-4.63c-1.3-0.7-1.58-1.4-0.72-2.63c0.91-1.3,1.36-3.19,3.7-2.09c0.64,0.3,1.22-0.36,1.67-0.85
		c3.45-3.74,3.23-5.27-1.16-7.82c-0.34-0.2-0.69-0.4-1.04-0.6c-3.18-1.78-6.74,0.31-6.75,3.97c0,0.54,0.13,1.03,0.4,1.5
		c0.33,0.58,1.39,0.87,0.89,1.78c-0.6,1.09-1.28,2.16-2.02,3.16c-0.34,0.46-0.87,0.1-1.26-0.13c-2.92-1.71-5.83-3.44-8.76-5.14
		c-0.86-0.5-1.04-1.08-0.58-1.95c0.8-1.51,1.15-3.19,3.73-2.89c2.22,0.25,2.65-2.1,3.26-3.7c0.56-1.47,0.21-2.91-1.31-3.75
		c-1.51-0.83-3.06-1.59-4.62-2.33c-1.28-0.6-2.3-0.26-3.05,0.96c-0.66,1.07-1.28,2.16-1.66,3.36c-0.29,0.94-0.26,1.8,0.59,2.51
		c1.98,1.66-0.11,2.83-0.67,4.05c-0.61,1.34-1.61,0.23-2.32-0.17c-2.6-1.46-5.15-3.04-7.75-4.49c-1.16-0.65-1.52-1.29-0.7-2.49
		c0.93-1.35,1.36-3.32,3.78-2.29c0.5,0.21,1.03-0.2,1.39-0.61c0.48-0.55,0.94-1.12,1.33-1.72c2.15-3.28,2.02-3.84-1.35-5.86
		c-0.4-0.24-0.8-0.47-1.2-0.7c-3.65-2.14-5.15-1.68-7.07,2.07c-0.65,1.27-0.6,2.34,0.39,3.43c1.73,1.91-0.66,2.82-1.19,4.14
		c-0.48,1.18-1.45,0.45-2.18,0.03c-2.82-1.63-5.6-3.3-8.44-4.9c-1.1-0.62-1.31-1.31-0.7-2.41c0.86-1.55,1.22-3.27,3.88-2.94
		c2.21,0.27,2.5-2.19,3.2-3.74c0.6-1.34,0.33-2.67-1.01-3.46c-1.65-0.97-3.37-1.87-5.13-2.65c-1.16-0.51-2.24-0.17-2.87,1.03
		c-0.52,0.99-1.08,1.97-1.51,3.01c-0.43,1.03-0.41,2,0.49,2.9c0.86,0.86-0.18,4.42-1.36,4.87c-0.5,0.19-0.9-0.11-1.3-0.34
		c-2.87-1.67-5.72-3.37-8.6-5.01c-1.01-0.58-1.26-1.21-0.6-2.23c0.88-1.35,1.42-3.12,3.69-2.25c0.43,0.16,0.93-0.08,1.28-0.42
		c1.3-1.27,2.28-2.75,2.78-4.5c0.19-0.65,0.07-1.37-0.52-1.8c-1.77-1.29-3.58-2.56-5.69-3.23c-2.06-0.65-3.2,0.71-4.16,2.25
		c-0.93,1.48-1.57,2.92-0.1,4.48c1.66,1.76-0.62,2.57-1.07,3.79c-0.46,1.23-1.46,0.49-2.15,0.06c-3.7-2.29-7.52-4.33-11.91-4.85
		c-11.96-1.42-22.88,4.95-24.15,19.28c-1.23,13.87,12.61,25.43,27.1,21.91c0.9-0.22,1.8-0.47,2.71-0.69
		c4.91-1.17,8.9,0.65,11.02,5.15c2.72,5.76,3.98,12,5.84,18.04c3.58,11.6,9.73,21.6,18.31,30.19c2.07,2.08,2.25,1.95,4.6,0.23
		c11.75-8.58,24.94-8.17,35.26,2.98c3.06,3.31,3.67,2.68-0.59,5.69c-11.69,8.24-24.72,12.53-39.08,13.27
		c-13.18,0.68-25.88-1.24-37.53-7.32c-23.06-12.04-37.6-30.52-41.67-56.43C32.25,118.16,32.18,114.47,32.28,111.2z"/>
	<path class="st0" d="M80.79,79.34c2.5-0.03,4.74,2.13,4.78,4.61c0.05,2.59-2.14,4.83-4.76,4.86c-2.51,0.03-4.72-2.1-4.78-4.62
		C75.96,81.62,78.17,79.37,80.79,79.34z"/>
	<path class="st0" d="M161.2,128.3c0.01,2.69-2.11,4.81-4.77,4.77c-2.56-0.04-4.69-2.17-4.68-4.69c0.01-2.58,2.06-4.7,4.6-4.76
		C159.02,123.56,161.19,125.65,161.2,128.3z"/>
	<path class="st0" d="M96.17,97.32c-2.65-0.01-4.69-1.98-4.73-4.57c-0.05-2.69,2.02-4.74,4.75-4.73c2.67,0.02,4.73,1.97,4.78,4.54
		C101.03,95.14,98.82,97.33,96.17,97.32z"/>
	<path class="st0" d="M126.08,115.08c-2.6-0.05-4.65-2.12-4.65-4.67c0.01-2.71,2.08-4.7,4.82-4.63c2.68,0.06,4.69,2.04,4.69,4.61
		C130.95,112.98,128.72,115.13,126.08,115.08z"/>
	<path class="st0" d="M145.97,119.05c0.01,2.74-2.04,4.77-4.78,4.73c-2.64-0.03-4.64-2.06-4.62-4.69c0.02-2.63,2.04-4.62,4.69-4.62
		C143.97,114.48,145.96,116.41,145.97,119.05z"/>
	<path class="st0" d="M115.61,101.57c0.04,2.72-1.92,4.75-4.68,4.82c-2.6,0.07-4.69-1.93-4.75-4.52c-0.06-2.74,1.92-4.77,4.66-4.78
		C113.55,97.07,115.57,98.97,115.61,101.57z"/>
</g>
<rect x="10" y="208.97" class="st1" width="216" height="58.03"/>
<text transform="matrix(0.981 0 0 1 10 246.9355)" class="st0 st2 st3">Guitar Plus</text>
</svg>
